<svg width="274" height="68" viewBox="0 0 274 68" fill="none" xmlns="http://www.w3.org/2000/svg">
<path d="M30.68 19.08L27.72 20.24V40.56L30.68 41.8V44H21.32V41.8L24.28 40.56V31.76H8.6V40.56L11.56 41.8V44H2.2V41.8L5.16 40.56V20.24L2.2 19.08V16.8H11.56V19.08L8.6 20.24V28.88H24.28V20.24L21.32 19.08V16.8H30.68V19.08ZM44.5706 23.36C47.2906 23.36 49.4906 24.2133 51.1706 25.92C52.8773 27.6 53.7306 30.1067 53.7306 33.44V35.04H38.0506C38.184 36.8267 38.504 38.2 39.0106 39.16C39.544 40.0933 40.304 40.7467 41.2906 41.12C42.304 41.4933 43.6906 41.68 45.4506 41.68C47.984 41.68 50.4906 41.3733 52.9706 40.76V43.64C51.9306 43.9067 50.7173 44.12 49.3306 44.28C47.944 44.4667 46.624 44.56 45.3706 44.56C41.824 44.56 39.1306 43.76 37.2906 42.16C35.4506 40.56 34.5306 37.8267 34.5306 33.96C34.5306 30.36 35.4373 27.6933 37.2506 25.96C39.064 24.2267 41.504 23.36 44.5706 23.36ZM44.3706 26.24C42.2906 26.24 40.7706 26.7067 39.8106 27.64C38.8506 28.5733 38.2773 30.0933 38.0906 32.2H50.1706C50.0106 30.2267 49.464 28.7467 48.5306 27.76C47.5973 26.7467 46.2106 26.24 44.3706 26.24ZM93.4409 41.8V44H87.3609V30.76C87.3609 29.1867 87.0143 28.0533 86.3209 27.36C85.6276 26.64 84.6009 26.28 83.2409 26.28C82.3076 26.28 81.4409 26.4 80.6409 26.64C79.8676 26.8533 78.5876 27.28 76.8009 27.92V40.6L79.5209 41.8V44H73.4409V30.76C73.4409 29.1867 73.0943 28.0533 72.4009 27.36C71.7076 26.64 70.6809 26.28 69.3209 26.28C68.4143 26.28 67.5609 26.4 66.7609 26.64C65.9876 26.8533 64.6943 27.28 62.8809 27.92V40.6L65.6009 41.8V44H56.8009V41.8L59.5209 40.6V27.32L56.8009 26.2V23.92H61.2409L62.2809 25.56C63.8543 24.76 65.2676 24.2 66.5209 23.88C67.7743 23.5333 69.0676 23.36 70.4009 23.36C71.7343 23.36 72.8409 23.5467 73.7209 23.92C74.6276 24.2933 75.3743 24.88 75.9609 25.68C77.5609 24.8533 79.0009 24.2667 80.2809 23.92C81.5876 23.5467 82.9343 23.36 84.3209 23.36C85.9209 23.36 87.1876 23.6267 88.1209 24.16C89.0543 24.6667 89.7209 25.4933 90.1209 26.64C90.5209 27.76 90.7209 29.28 90.7209 31.2V40.6L93.4409 41.8ZM106.644 23.36C109.71 23.36 112.164 24.2133 114.004 25.92C115.87 27.6 116.804 30.28 116.804 33.96C116.804 37.64 115.87 40.3333 114.004 42.04C112.164 43.72 109.71 44.56 106.644 44.56C103.577 44.56 101.11 43.72 99.2438 42.04C97.4038 40.3333 96.4838 37.64 96.4838 33.96C96.4838 30.28 97.4038 27.6 99.2438 25.92C101.11 24.2133 103.577 23.36 106.644 23.36ZM106.644 26.24C105.044 26.24 103.764 26.4667 102.804 26.92C101.87 27.3733 101.164 28.16 100.684 29.28C100.23 30.4 100.004 31.96 100.004 33.96C100.004 35.96 100.23 37.52 100.684 38.64C101.164 39.76 101.87 40.5467 102.804 41C103.764 41.4533 105.044 41.68 106.644 41.68C108.244 41.68 109.51 41.4533 110.444 41C111.404 40.5467 112.11 39.76 112.564 38.64C113.044 37.52 113.284 35.96 113.284 33.96C113.284 31.96 113.044 30.4 112.564 29.28C112.11 28.16 111.404 27.3733 110.444 26.92C109.51 26.4667 108.244 26.24 106.644 26.24ZM160.328 19.08L157.368 20.24V40.56L160.328 41.8V44H150.968V41.8L153.928 40.56V31.76H138.248V40.56L141.208 41.8V44H131.848V41.8L134.808 40.56V20.24L131.848 19.08V16.8H141.208V19.08L138.248 20.24V28.88H153.928V20.24L150.968 19.08V16.8H160.328V19.08ZM187.059 41.72V44H182.619L181.579 42.36C180.032 43.1333 178.592 43.6933 177.259 44.04C175.952 44.3867 174.619 44.56 173.259 44.56C171.552 44.56 170.206 44.3067 169.219 43.8C168.259 43.2667 167.566 42.44 167.139 41.32C166.712 40.1733 166.499 38.64 166.499 36.72V27.32L163.779 26.12V23.92H169.859V37.16C169.859 38.7333 170.232 39.88 170.979 40.6C171.752 41.2933 172.872 41.64 174.339 41.64C175.272 41.64 176.179 41.52 177.059 41.28C177.966 41.04 179.272 40.6133 180.979 40V27.24L178.259 26.12V23.92H184.339V40.6L187.059 41.72ZM202.301 23.36C204.968 23.36 207.021 24.2 208.461 25.88C209.901 27.56 210.621 30.28 210.621 34.04C210.621 36.68 210.328 38.76 209.741 40.28C209.154 41.7733 208.274 42.84 207.101 43.48C205.954 44.0933 204.474 44.4 202.661 44.4C201.008 44.4 199.541 44.1333 198.261 43.6C197.008 43.0667 195.821 42.24 194.701 41.12L193.661 44H191.621V19L188.901 17.88V15.6H194.981V25.56C196.288 24.7867 197.528 24.2267 198.701 23.88C199.874 23.5333 201.074 23.36 202.301 23.36ZM201.981 41.48C203.181 41.48 204.154 41.28 204.901 40.88C205.648 40.4533 206.194 39.72 206.541 38.68C206.914 37.64 207.101 36.2 207.101 34.36C207.101 31.6133 206.661 29.5867 205.781 28.28C204.928 26.9467 203.501 26.28 201.501 26.28C200.568 26.28 199.661 26.4 198.781 26.64C197.928 26.88 196.661 27.3067 194.981 27.92V38.88C197.168 40.6133 199.501 41.48 201.981 41.48Z" fill="#7E9572"/>
<path d="M241.781 51.2C241.781 53.44 242.157 55.552 242.846 57.6H241.781C231.42 57.6 223 48.992 223 38.4C223 25.6 241.781 4 241.781 4C241.781 4 255.273 19.52 259.374 32C249.607 32.704 241.781 41.024 241.781 51.2ZM263.693 48V38.4H257.433V48H248.042V54.4H257.433V64H263.693V54.4H273.084V48H263.693Z" fill="#7E9572"/>
</svg>
